<?xml version="1.0" encoding="utf-8"?>
<!-- Generator: Adobe Illustrator 15.0.0, SVG Export Plug-In . SVG Version: 6.00 Build 0)  -->
<!DOCTYPE svg PUBLIC "-//W3C//DTD SVG 1.1//EN" "http://www.w3.org/Graphics/SVG/1.1/DTD/svg11.dtd">
<svg version="1.1" id="Layer_1" xmlns="http://www.w3.org/2000/svg" xmlns:xlink="http://www.w3.org/1999/xlink" x="0px" y="0px"
	 width="62px" height="45px" viewBox="0 0 62 45" enable-background="new 0 0 62 45" xml:space="preserve">
<path fill="#FFFFFF" d="M3.632,16.55h4.825L15.8,40.678c0.266,0.873,0.715,1.678,1.295,2.391c-0.717-0.479-1.311-1.018-1.707-1.588
	L0.511,20.07C-0.834,18.134,0.57,16.55,3.632,16.55z"/>
<path fill="#FFFFFF" d="M12.542,6.559h3.649v30.287L8.422,11.315C7.626,8.699,9.48,6.559,12.542,6.559z"/>
<path fill="#FFFFFF" d="M23.25,0h32.872c3.062,0,5.566,2.506,5.566,5.567v33.865c0,3.062-2.506,5.567-5.566,5.567h-1.297V34.15
	v-0.996V10.85c0-2.106-1.725-3.831-3.832-3.831H28.376c-2.106,0-3.831,1.724-3.831,3.831v23.3c0,2.106,1.725,3.83,3.831,3.83h18.959
	L51.924,45H23.25c-3.062,0-5.567-2.506-5.567-5.566V5.567C17.682,2.505,20.188,0,23.25,0L23.25,0z M28.775,11.388v1.28h21.818v-1.28
	H28.775L28.775,11.388z M28.775,32.332v1.279h21.818v-1.279H28.775L28.775,32.332z M28.775,28.143v1.281h21.818v-1.281H28.775
	L28.775,28.143z M28.775,23.955v1.279h21.818v-1.279H28.775L28.775,23.955z M28.775,19.766v1.28h21.818v-1.28H28.775L28.775,19.766z
	 M28.775,15.577v1.28h21.818v-1.28H28.775z"/>
<path fill="#FFFFFF" d="M61.688,20.214v19.218c0,3.062-2.506,5.567-5.567,5.567h-1.295V34.15v-0.996V10.85
	c0-0.663-0.173-1.287-0.472-1.833l0,0L61.688,20.214L61.688,20.214z M51.924,45H30.967l-5.341-8.189l0,0
	c0.698,0.722,1.675,1.17,2.751,1.17h18.959L51.924,45L51.924,45z M28.932,33.611l1.322-1.279h20.34v1.279H28.932L28.932,33.611z
	 M33.262,29.424l1.322-1.281h16.01v1.281H33.262L33.262,29.424z M37.59,25.234l1.324-1.279h11.68v1.279H37.59L37.59,25.234z
	 M41.92,21.045l1.324-1.28h7.35v1.28H41.92L41.92,21.045z M46.25,16.857l1.324-1.28h3.02v1.28H46.25L46.25,16.857z M50.58,12.668
	l0.014-0.013v0.013H50.58z"/>
</svg>
