<?xml version="1.0" encoding="utf-8"?>
<!-- Generator: Adobe Illustrator 15.0.0, SVG Export Plug-In . SVG Version: 6.00 Build 0)  -->
<!DOCTYPE svg PUBLIC "-//W3C//DTD SVG 1.1//EN" "http://www.w3.org/Graphics/SVG/1.1/DTD/svg11.dtd">
<svg version="1.1" id="Layer_1" xmlns="http://www.w3.org/2000/svg" xmlns:xlink="http://www.w3.org/1999/xlink" x="0px" y="0px"
	 width="70px" height="70px" viewBox="0 0 70 70" enable-background="new 0 0 70 70" xml:space="preserve">
<g>
	<ellipse fill="#5E6B84" cx="29.383" cy="27.078" rx="2.881" ry="1.729"/>
	<path fill="#344463" d="M18.818,34.797c0.801,0.412,1.038,0.574,1.061,0.857c0.441,5.227,2.539,7.566,4.224,9.447
		c0.625,0.696,1.213,1.354,1.664,2.088c1.658,2.697,4.588,4.375,7.649,4.375c0.478,0,0.864-0.388,0.864-0.865
		c0-0.477-0.387-0.863-0.864-0.863c-2.464,0-4.832-1.361-6.177-3.551c-0.53-0.867-1.171-1.581-1.849-2.338
		c-1.67-1.863-3.396-3.789-3.789-8.439c-0.109-1.28-1.11-1.795-1.995-2.248c-1.283-0.659-2.61-1.341-2.61-4.454
		c0-1.452,0.562-3.128,1.825-3.608c0.227-0.09,0.493-0.137,0.767-0.137h0.001c0.068,0,0.138-0.008,0.208-0.024
		c0.029-0.008,0.048-0.025,0.077-0.033c0.035-0.01,0.06-0.028,0.092-0.038c1.054-0.347,1.505-1.239,1.68-2.236
		c0.522-1.56,0.217-4.11,0.868-6.398c0.209-0.736,0.401-1.508,0.56-2.257c0.25-1.181,1.124-2.621,1.124-2.621
		s3.526,1.221,7.052,1.221c3.537,0,8.433,0,11.672,0c6.331,0,6.985,6.725,8.898,9.898c0.349,1.021,1.001,2.048,1.954,2.39
		c0.033,0.013,0.062,0.032,0.094,0.042c0.025,0.008,0.045,0.023,0.07,0.03c0.072,0.018,0.146,0.027,0.218,0.027l0,0
		c0.322,0,0.63,0.068,0.913,0.196c1.021,0.477,1.68,1.872,1.68,3.549c0,3.077-1.348,3.763-2.65,4.427
		c-0.874,0.445-1.959,0.998-1.959,2.35c0,0.478,0.388,0.864,0.865,0.864c0.477,0,0.863-0.387,0.863-0.864
		c0-0.243,0.172-0.379,1.014-0.808c1.434-0.73,3.596-1.832,3.596-5.968c0-2.382-1.023-4.341-2.683-5.118
		c-0.048-0.021-0.097-0.029-0.144-0.047c2.493-9.52-1.594-14.522-2.646-15.576c3.238-1.797,2.304-5.761,2.304-5.761
		c-1.393,0.819-3.214,1.152-4.608,1.152C46.183,3.457,42.013,0,36.872,0c-6.717,0-9.218,2.305-9.218,2.305S26.122,2.88,25.35,4.609
		c-2.017-0.38-8.066,2.236-8.066,11.523c0,2.133,0.325,4.562,1.007,7.429c-0.029,0.01-0.062,0.014-0.092,0.025
		c-1.782,0.676-2.932,2.725-2.932,5.221C15.268,32.975,17.403,34.071,18.818,34.797z"/>
	<path fill="#344463" d="M40.769,23.791c1.492-0.876,5.846-1.597,7.37-0.362c0.369,0.3,0.916,0.244,1.216-0.127
		c0.301-0.371,0.244-0.915-0.127-1.215c-2.345-1.902-7.636-0.786-9.335,0.214c-0.411,0.242-0.55,0.772-0.308,1.184
		c0.159,0.273,0.449,0.425,0.744,0.425C40.479,23.909,40.629,23.871,40.769,23.791z"/>
	<path fill="#344463" d="M32.978,23.791c0.139,0.08,0.289,0.118,0.438,0.118c0.294,0,0.585-0.152,0.745-0.425
		c0.242-0.412,0.104-0.941-0.308-1.184c-1.632-0.958-6.71-2.185-9.141-0.214c-0.37,0.301-0.427,0.844-0.126,1.215
		c0.299,0.371,0.844,0.428,1.215,0.127C27.31,22.206,31.485,22.913,32.978,23.791z"/>
	<path fill="#344463" d="M37.737,38.532c0-0.478-0.388-0.864-0.865-0.864c-1.097,0-1.926-0.453-1.946-0.464
		c-0.411-0.235-0.938-0.093-1.177,0.321c-0.236,0.414-0.095,0.943,0.319,1.18c0.05,0.028,1.22,0.691,2.804,0.691
		C37.35,39.396,37.737,39.01,37.737,38.532z"/>
	<path fill="#344463" d="M32.128,43.488l1.821,0.287c0.045,0.008,0.091,0.01,0.136,0.01c0.418,0,0.785-0.302,0.852-0.729
		c0.076-0.471-0.246-0.914-0.717-0.988l-1.821-0.287c-0.466-0.072-0.914,0.246-0.988,0.717
		C31.335,42.971,31.657,43.414,32.128,43.488z"/>
	<path fill="#5E6B84" d="M50.819,61.862c-1.264-0.571-3.169-1.434-4.069-2.504c-0.544-0.64-1.197-1.981-1.886-3.403
		c-0.768-1.576-1.561-3.207-2.439-4.412c-0.588-0.814-1.13-1.327-1.709-1.615c-0.427-0.211-0.947-0.041-1.158,0.386
		c-0.214,0.427-0.041,0.946,0.385,1.16c0.311,0.155,0.676,0.518,1.084,1.085c0.793,1.084,1.549,2.645,2.283,4.152
		c0.77,1.589,1.436,2.959,2.119,3.766c1.152,1.365,3.275,2.324,4.677,2.96c0.455,0.206,1.022,0.462,1.137,0.55l5.761,5.762
		c0.169,0.169,0.39,0.252,0.61,0.252s0.443-0.083,0.612-0.252c0.338-0.338,0.338-0.885,0-1.223l-5.755-5.754
		C52.198,62.492,51.741,62.279,50.819,61.862z"/>
	<path fill="#5E6B84" d="M54.841,40.955c-0.232-0.302-0.821-1.066-1.641-2.094c-2.395-3.049-5.701-7.155-8.066-9.897
		c0.84-0.072,1.783-0.217,2.463-0.52c0.434-0.195,0.629-0.706,0.436-1.141c-0.195-0.437-0.703-0.631-1.141-0.438
		c-0.785,0.35-2.367,0.428-3.234,0.434c-1.415-1.527-1.781-1.662-2.176-1.662c-1.525,0-3.168,0.993-3.168,3.169
		c0,1.331,1.764,4.177,5.219,8.447c-0.305-0.053-0.607-0.094-0.898-0.094c-2.465,0-3.749,1.869-4.182,3.681
		c-2.09,0.566-2.443,2.053-2.443,2.944c0,1.646,0.348,2.576,0.723,3.117c-0.516,0.943-0.723,2.053-0.723,2.645
		c0,0.4,0.024,0.828,0.074,1.244c0.213,1.999,1.107,5.382,3.094,5.382h1.152c0.478,0,0.864-0.388,0.864-0.864
		s-0.387-0.864-0.864-0.864l-1.132,0.003c-0.347-0.105-1.152-1.556-1.397-3.85c-0.041-0.355-0.062-0.713-0.062-1.051
		c0-0.463,0.256-1.598,0.775-2.223c0.264-0.326,0.494-0.369,0.664-0.369c2.672,0,5.415,1.08,5.441,1.092
		c0.441,0.175,0.945-0.04,1.123-0.483c0.176-0.442-0.037-0.945-0.48-1.122c-0.125-0.049-3.07-1.215-6.084-1.215
		c-0.434,0-0.837,0.119-1.205,0.328c-0.119-0.33-0.234-0.875-0.234-1.77c0-0.586,0.191-1.162,1.577-1.379
		c0.36-0.054,0.731-0.061,1.015-0.061c0.873,0,4.373,1.309,6.578,2.236c0.443,0.188,0.947-0.021,1.133-0.461
		c0.184-0.439-0.021-0.945-0.461-1.132c-0.941-0.396-5.713-2.372-7.25-2.372c-0.002,0-0.004,0-0.004,0
		c0.319-0.814,0.97-1.729,2.309-1.729c0.754,0,1.899,0.352,3.148,0.963c1.186,0.576,2.129,1.193,2.139,1.2
		c0.4,0.263,0.936,0.153,1.197-0.248c0.261-0.397,0.15-0.934-0.248-1.196c-0.038-0.025-0.957-0.625-2.16-1.225
		c-4.601-5.433-6.669-8.725-6.669-9.576c0-1.127,0.761-1.383,1.243-1.43c0.166,0.135,0.555,0.486,1.354,1.366
		c2.277,2.511,6.381,7.596,9.207,11.193c0.812,1.02,1.398,1.777,1.623,2.068c1.677,2.214,2.572,6.802,3.225,10.152
		c0.567,2.899,0.865,4.319,1.463,4.916c1.152,1.154,9.567,6.438,10.521,7.035c0.145,0.088,0.302,0.131,0.459,0.131
		c0.288,0,0.57-0.143,0.734-0.404c0.252-0.405,0.13-0.938-0.275-1.191c-3.544-2.221-9.454-6.029-10.203-6.775
		c-0.286-0.371-0.683-2.407-1.002-4.043C57.665,48.113,56.765,43.494,54.841,40.955z"/>
	<polygon fill="#2B86C8" points="4.609,69.136 11.522,62.223 18.436,69.136 23.045,64.527 16.132,57.613 23.045,50.699 
		18.436,46.091 11.522,53.004 4.609,46.091 0,50.699 6.914,57.613 0,64.527 	"/>
</g>
</svg>
