<?xml version="1.0" encoding="utf-8"?>
<!-- Generator: Adobe Illustrator 15.0.0, SVG Export Plug-In . SVG Version: 6.00 Build 0)  -->
<!DOCTYPE svg PUBLIC "-//W3C//DTD SVG 1.1//EN" "http://www.w3.org/Graphics/SVG/1.1/DTD/svg11.dtd">
<svg version="1.1" id="Layer_1" xmlns="http://www.w3.org/2000/svg" xmlns:xlink="http://www.w3.org/1999/xlink" x="0px" y="0px"
	 width="70px" height="70px" viewBox="0 0 70 70" enable-background="new 0 0 70 70" xml:space="preserve">
<g>
	<path fill="none" d="M40.768,38.932c-1.148,0.801-2.451,1.709-6.033,1.709c-3.582,0-4.884-0.908-6.033-1.709
		c-0.263-0.184-0.511-0.356-0.778-0.512c-0.172-0.098-0.341-0.205-0.509-0.313v1.614c0,2.742-2.289,5.129-6.797,7.099
		c3.603,3.991,8.705,6.442,14.117,6.442c5.413,0,10.506-2.451,14.116-6.442c-4.507-1.97-6.796-4.357-6.796-7.099v-1.614
		c-0.166,0.107-0.332,0.212-0.502,0.31C41.279,38.575,41.03,38.748,40.768,38.932z"/>
	<path fill="none" d="M45.336,26v3.029v0.831c0.229-0.697,0.425-1.432,0.58-2.211c0.065-0.331,0.341-0.578,0.676-0.607
		c0.252-0.028,2.531-0.383,2.531-4.071c0-0.407-0.035-0.745-0.088-1.035l-3.736,3.734C45.322,25.778,45.336,25.887,45.336,26z"/>
	<path fill="none" d="M24.133,26c0-0.118,0.016-0.229,0.042-0.339l-3.741-3.717c-0.051,0.289-0.087,0.624-0.087,1.027
		c0,3.688,2.277,4.043,2.538,4.072c0.328,0.035,0.604,0.281,0.669,0.605c0.156,0.78,0.352,1.515,0.58,2.212v-0.831V26z"/>
	<path fill="none" d="M25.647,24.485c3.224,0,4.808-0.682,6.08-1.229c0.942-0.407,1.833-0.79,3.007-0.79
		c1.18,0,2.072,0.384,3.016,0.792c1.271,0.547,2.852,1.228,6.072,1.228c0.271,0,0.523,0.078,0.745,0.204l3.989-3.987
		c-0.002-0.002-0.004-0.005-0.006-0.008c-0.004-0.006-0.007-0.009-0.012-0.014c-1.584-0.188-2.398-1.716-3.186-3.199
		c-1.075-2.021-2.187-4.111-5.197-4.111c-0.395,0-1.012,0.095-1.729,0.204c-2.682,0.41-7.031,1.075-10.466-1.482
		c-2.002,4.529-4.17,7.169-6.944,8.487c-0.022,0.022-0.056,0.059-0.1,0.116c-0.002,0.003-0.007,0.01-0.009,0.014l4.001,3.977
		C25.129,24.562,25.378,24.485,25.647,24.485z"/>
	<path fill="#344463" d="M22.168,28.421c0.433,1.951,1.091,3.668,1.965,5.132V32.27v-2.41c-0.228-0.697-0.424-1.432-0.58-2.212
		c-0.064-0.324-0.341-0.57-0.669-0.605c-0.26-0.029-2.538-0.384-2.538-4.072c0-0.403,0.036-0.738,0.087-1.027l-1.233-1.226
		c-0.211,0.551-0.369,1.284-0.369,2.252C18.832,26.916,21.08,28.086,22.168,28.421z"/>
	<path fill="#344463" d="M20.918,20.694c0.044-0.057,0.078-0.094,0.1-0.116c-0.014,0.007-0.028,0.015-0.042,0.022
		c-0.021,0.037-0.043,0.072-0.07,0.105l0.003,0.002C20.911,20.704,20.916,20.697,20.918,20.694z"/>
	<path fill="#344463" d="M48.557,20.702l0.002-0.002c-0.006-0.007-0.012-0.013-0.018-0.02h-0.002
		c0.005,0.005,0.008,0.008,0.012,0.014C48.553,20.697,48.555,20.699,48.557,20.702z"/>
	<path fill="#344463" d="M50.637,22.971c0-0.975-0.16-1.712-0.372-2.265l-1.229,1.23c0.053,0.29,0.088,0.628,0.088,1.035
		c0,3.688-2.279,4.043-2.531,4.071c-0.335,0.029-0.61,0.276-0.676,0.607c-0.155,0.779-0.352,1.514-0.58,2.211v2.41v1.284
		c0.875-1.464,1.533-3.181,1.965-5.132C48.389,28.086,50.637,26.916,50.637,22.971z"/>
	<path fill="#344463" d="M56.531,47.73c-0.966-0.236-1.831-0.471-2.655-0.721c-1.487-0.428-2.971-0.955-4.292-1.521
		c-2.744-1.182-6.015-3.142-6.015-5.768v-2.787c-0.476,0.436-0.981,0.828-1.515,1.173v1.614c0,2.741,2.289,5.129,6.796,7.099
		c-3.61,3.991-8.703,6.442-14.116,6.442c-5.412,0-10.514-2.451-14.117-6.442c4.508-1.97,6.797-4.356,6.797-7.099v-1.614
		c-0.537-0.347-1.043-0.741-1.515-1.173v2.787c0,2.626-3.271,4.586-6.014,5.768c-1.322,0.566-2.806,1.094-4.303,1.524
		c-0.813,0.247-1.68,0.481-2.644,0.716c-9.253,2.233-9.253,7.987-9.253,13.553v0.058h0.757h0.757
		c23.041,11.589,36.228,11.507,59.067,0h0.757h0.758v-0.058C65.783,55.716,65.783,49.962,56.531,47.73z"/>
	<path fill="#5E6B84" d="M50.193,10.381c-0.231-1.007-0.656-2.385-1.4-3.551c1.273-1.928,0.84-4.108,0.818-4.208
		c-0.08-0.384-0.44-0.645-0.83-0.596c-0.031,0.003-3.234,0.365-6.816-0.635c-0.002,0-0.004-0.001-0.006-0.002
		C39.797,0.467,37.367,0,34.734,0c-5.409,0-8.5,1.215-10.595,4.185c-2.374,1.052-4.328,3.497-5.011,6.287
		c-0.197,0.755-0.297,1.563-0.297,2.402c0,4.227,0,5.3,0.488,6.813c0.151-0.07,0.325-0.076,0.479-0.014
		c0.028,0.012,0.054,0.027,0.08,0.042c0.043,0.025,0.084,0.054,0.121,0.09l0.247,0.246l0.122,0.12l0.482,0.48l0.054,0.054
		c0.027-0.033,0.05-0.068,0.07-0.105c0.014-0.007,0.028-0.015,0.042-0.022c2.774-1.318,4.942-3.958,6.944-8.487
		c3.435,2.557,7.785,1.892,10.466,1.482c0.717-0.109,1.334-0.204,1.729-0.204c3.011,0,4.122,2.09,5.197,4.111
		c0.787,1.483,1.602,3.012,3.186,3.199h0.002c0.006,0.007,0.012,0.013,0.018,0.02l0.017-0.017l0.519-0.519l0.13-0.129l0.228-0.229
		c0.041-0.041,0.088-0.072,0.136-0.098c0.026-0.015,0.052-0.029,0.08-0.039c0.147-0.056,0.313-0.05,0.459,0.014
		c0.511-1.86,0.511-3.915,0.511-5.608C50.637,12.876,50.479,11.562,50.193,10.381z"/>
	<path fill="#2B86C8" d="M50.309,19.807c-0.055-0.054-0.117-0.095-0.183-0.124c-0.146-0.064-0.312-0.07-0.459-0.014
		c-0.028,0.01-0.054,0.024-0.08,0.039c-0.048,0.026-0.095,0.058-0.136,0.098l-0.228,0.229l-0.13,0.129l-0.519,0.519l-0.017,0.017
		l-0.002,0.002l-3.989,3.987l-1.306,1.303c-5.259-0.125-6.35-2.012-8.527-2.012c-2.163,0-3.265,1.882-8.509,2.012l-1.316-1.308
		l-4.001-3.977l-0.003-0.002l-0.054-0.054l-0.482-0.48l-0.122-0.12L20,19.805c-0.037-0.036-0.078-0.065-0.121-0.09
		c-0.026-0.015-0.052-0.03-0.08-0.042c-0.154-0.062-0.328-0.056-0.479,0.014c-0.064,0.03-0.125,0.068-0.177,0.121
		c-0.236,0.237-0.234,0.621,0.002,0.857l0.055,0.054l1.233,1.226l3.741,3.717l1.473,1.465v1.297h3.029
		c0.334,0,0.606,0.271,0.606,0.606c0,0.334-0.271,0.605-0.606,0.605h-3.029v2.029c0.081,0,0.161,0.016,0.239,0.05l3.029,1.302
		c0.308,0.133,0.45,0.489,0.317,0.796c-0.098,0.229-0.322,0.367-0.556,0.367c-0.081,0-0.162-0.016-0.239-0.05l-2.79-1.199v0.183
		v1.318c0.15,0.2,0.31,0.396,0.479,0.585c0.17,0.192,0.348,0.378,0.532,0.557c0.239,0.234,0.493,0.455,0.757,0.668
		c0.393,0.314,0.809,0.607,1.262,0.866c1.585,0.919,2.141,2.019,6.058,2.019c3.918,0,4.473-1.1,6.059-2.019
		c0.453-0.259,0.869-0.552,1.262-0.866c0.264-0.213,0.518-0.434,0.758-0.668c0.182-0.184,0.359-0.368,0.529-0.559
		c0.168-0.188,0.33-0.382,0.48-0.583v-1.318V32.93l-2.79,1.199c-0.078,0.034-0.159,0.05-0.239,0.05
		c-0.234,0-0.458-0.138-0.557-0.367c-0.133-0.307,0.01-0.663,0.317-0.796l3.029-1.302c0.077-0.034,0.159-0.05,0.239-0.05v-2.029
		h-3.029c-0.335,0-0.605-0.271-0.605-0.605c0-0.335,0.271-0.606,0.605-0.606h3.029v-1.276l1.477-1.476l3.736-3.734l1.229-1.23
		l0.044-0.044C50.545,20.426,50.545,20.043,50.309,19.807z"/>
</g>
</svg>
