<?xml version="1.0" encoding="utf-8"?>
<!-- Generator: Adobe Illustrator 15.0.0, SVG Export Plug-In . SVG Version: 6.00 Build 0)  -->
<!DOCTYPE svg PUBLIC "-//W3C//DTD SVG 1.1//EN" "http://www.w3.org/Graphics/SVG/1.1/DTD/svg11.dtd">
<svg version="1.1" id="Layer_1" xmlns="http://www.w3.org/2000/svg" xmlns:xlink="http://www.w3.org/1999/xlink" x="0px" y="0px"
	 width="70px" height="70px" viewBox="0 0 70 70" enable-background="new 0 0 70 70" xml:space="preserve">
<g>
	<path fill="none" d="M44.905,39.837c1.565,0,2.673-0.325,3.328-0.599c-0.724-1.203-2.007-3.711-2.885-7.531
		c-0.628-2.751-1.399-4.949-2.29-6.532c-1.107-1.979-2.4-2.98-3.844-2.98c-3.075,0-7.221,3.165-10.563,8.062
		c-1.172,1.699-2.248,3.607-3.205,5.681c0.914,0.851,2.199,1.934,3.132,2.488l3.043-6.084c0.21-0.422,0.722-0.594,1.145-0.382
		c0.421,0.211,0.592,0.724,0.382,1.145l-3.038,6.074c0.357,0.147,0.858,0.315,1.525,0.444c0.42,0.082,0.705,0.459,0.688,0.873
		l1.45,0.058v-0.005c0.022-0.568,0.033-1.249,0.033-2.135c0-1.641,0.596-2.828,1.171-3.979c0.244-0.488,0.476-0.949,0.658-1.44
		c0.219-0.582,2.195-5.678,4.716-5.678c2.987,0,3.13,1.846,3.13,7.683c0,2.026-0.349,3.132-0.658,4.107
		c-0.169,0.531-0.312,0.998-0.4,1.584h1.627C44.051,40.219,44.434,39.837,44.905,39.837z"/>
	<path fill="#2B86C8" d="M25.969,28.876c-0.147,0.1-0.315,0.148-0.48,0.148c-0.273,0-0.54-0.13-0.706-0.373
		c-0.49-0.718-0.826-1.774-1.026-3.198l-3.819,0.153c-5.947,0.788-11.74,2.351-11.74,11.668c0,2.175,0.374,4.674,1.109,7.428
		c1.405,5.32,3.944,10.75,6.082,14.377c0.004-0.766,0.07-1.621,0.219-2.584c0.107-0.671,0.259-1.296,0.466-1.917
		c0.001-0.003,0.002-0.007,0.003-0.01l0,0c1.296-4.11,4.964-9.323,8.36-10.524c0.147-0.053,0.288-0.09,0.426-0.125l-3.36-3.803
		c-0.312-0.354-0.279-0.893,0.075-1.205c0.354-0.312,0.894-0.277,1.205,0.076l9.198,10.408c0.474-3.154,1.217-5.497,1.528-6.475
		c0.056-0.174,0.096-0.3,0.117-0.374c0.074-0.728,0.118-1.294,0.149-1.994l-1.45-0.058c-0.002,0.042-0.003,0.084-0.011,0.127
		c-0.079,0.408-0.437,0.691-0.838,0.691c-0.053,0-0.107-0.004-0.162-0.015c-1.559-0.3-2.445-0.798-2.741-0.987
		c-1.723-0.641-4.44-3.26-4.751-3.564c-0.256-0.249-0.329-0.631-0.184-0.959c1.058-2.375,2.268-4.554,3.594-6.481l-1.029-0.671
		C26.143,28.728,26.065,28.811,25.969,28.876z"/>
	<path fill="#2B86C8" d="M48.641,43.863c0.133-0.451,0.608-0.709,1.06-0.577c0.452,0.134,0.71,0.608,0.577,1.06
		c-0.609,2.066-1.098,4.748-1.459,7.969c0.387-0.02,0.791-0.045,1.233-0.08c4.526-0.385,7.527-1.646,9.261-2.647
		c0.018-0.011,0.035-0.019,0.052-0.028c0.853-0.5,1.414-0.951,1.715-1.219c-2.11-17.024-3.66-18.608-13.021-21.634l-2.837-1.018
		c0.686,1.538,1.287,3.425,1.792,5.638c1.174,5.11,3.105,7.684,3.124,7.708c0.286,0.374,0.215,0.91-0.16,1.196
		c-0.07,0.055-1.758,1.314-5.071,1.314c-0.472,0-0.854-0.383-0.854-0.854h-1.627c-0.006,0.038-0.013,0.072-0.019,0.112
		c-0.041,0.295-0.062,0.629-0.062,1.025c0,1.393,0.289,5.281,0.567,9.043c0.295,3.967,0.571,7.715,0.571,9.169
		c0,3.386-2.872,5.406-7.684,5.406c-3.226,0-8.136-2.661-11.728-4.925l-0.449,1.02c0.025,0.011,0.052,0.02,0.078,0.034
		c0.409,0.231,0.555,0.748,0.324,1.158c-0.061,0.11-1.549,2.713-4.159,2.713c-0.833,0-1.621-0.253-2.278-0.732l-0.04-0.028
		c-0.037-0.025-0.076-0.055-0.115-0.084c-0.003-0.002-0.007-0.004-0.01-0.006c-0.004-0.004-0.01-0.008-0.014-0.012
		s-0.01-0.008-0.016-0.012c-0.007-0.006-0.015-0.013-0.021-0.018c-2.024-1.562-6.289-8.814-8.821-16.432
		c0.254,8.416,1.07,16.647,1.07,21.023h36.708c0-6.195,0.231-11.59,0.687-16.033C47.398,49.297,47.932,46.271,48.641,43.863z"/>
	<path fill="#2B86C8" d="M49.834,18.308c0.148,0.3,0.45,0.472,0.764,0.472c0.127,0,0.259-0.029,0.381-0.09l4.553-2.276
		c0.422-0.211,0.593-0.724,0.383-1.145c-0.211-0.422-0.724-0.592-1.146-0.382l-4.553,2.276
		C49.793,17.374,49.623,17.886,49.834,18.308z"/>
	<path fill="#2B86C8" d="M11.516,15.275l4.553,2.276c0.122,0.061,0.252,0.09,0.381,0.09c0.314,0,0.615-0.172,0.765-0.472
		c0.21-0.421,0.039-0.934-0.382-1.145l-4.553-2.276c-0.423-0.21-0.935-0.04-1.145,0.382C10.923,14.552,11.095,15.064,11.516,15.275z
		"/>
	<path fill="#2B86C8" d="M52.035,22.647c0.082,0.406,0.438,0.686,0.838,0.686c0.055,0,0.111-0.006,0.168-0.017l5.691-1.138
		c0.462-0.092,0.762-0.542,0.67-1.005c-0.094-0.462-0.544-0.763-1.006-0.669l-5.69,1.138C52.244,21.734,51.943,22.185,52.035,22.647
		z"/>
	<path fill="#2B86C8" d="M8.316,21.04l5.691,1.138c0.056,0.011,0.112,0.017,0.168,0.017c0.399,0,0.755-0.28,0.837-0.686
		c0.092-0.462-0.208-0.913-0.67-1.005L8.65,19.366c-0.461-0.093-0.912,0.208-1.005,0.669C7.553,20.497,7.854,20.947,8.316,21.04z"/>
	<g>
		<path fill="#344463" d="M60.674,50.756c-0.143,0.092-0.288,0.183-0.449,0.277c-0.354,0.205-0.756,0.422-1.209,0.642l0.973,17.519
			C60.014,69.648,60.391,70,60.84,70c0.016,0,0.031,0,0.049-0.002c0.47-0.026,0.83-0.429,0.805-0.9L60.674,50.756z"/>
		<path fill="#344463" d="M59.364,49.559c-0.017,0.01-0.034,0.019-0.052,0.028C59.33,49.576,59.348,49.568,59.364,49.559
			L59.364,49.559z"/>
		<path fill="#344463" d="M45.111,21.55c0.027,0.007,0.055,0.016,0.082,0.02c0.041,0.006,0.083,0.009,0.123,0.009
			c0.418,0,0.783-0.306,0.846-0.731c0.355-2.454,0.148-5.439,0.03-6.714c-0.151,0.073-0.302,0.146-0.462,0.215
			c-0.038,0.024-0.08,0.047-0.125,0.064c-0.078,0.032-0.158,0.059-0.236,0.09c-0.271,0.103-0.547,0.2-0.832,0.285
			c0.11,1.409,0.217,3.866-0.065,5.815C44.407,21.041,44.69,21.445,45.111,21.55z"/>
		<path fill="#344463" d="M50.137,39.034c-0.019-0.024-1.95-2.599-3.124-7.708c-0.505-2.213-1.106-4.1-1.792-5.638
			c-0.217-0.484-0.441-0.936-0.674-1.349c-0.008-0.016-0.018-0.03-0.025-0.044c-0.081-0.142-0.16-0.279-0.242-0.413
			c-0.096-0.154-0.192-0.305-0.29-0.449c-1.331-1.955-2.933-2.945-4.774-2.945c-3.679,0-8.267,3.375-11.972,8.803
			c-0.004,0.006-0.008,0.012-0.011,0.018c-1.326,1.927-2.536,4.106-3.594,6.481c-0.146,0.328-0.072,0.71,0.184,0.959
			c0.311,0.305,3.028,2.924,4.751,3.564c0.295,0.189,1.182,0.688,2.741,0.987c0.055,0.011,0.109,0.015,0.162,0.015
			c0.401,0,0.759-0.283,0.838-0.691c0.008-0.043,0.009-0.085,0.011-0.127c0.017-0.414-0.268-0.791-0.688-0.873
			c-0.667-0.129-1.168-0.297-1.525-0.444l3.038-6.074c0.21-0.421,0.039-0.934-0.382-1.145c-0.423-0.211-0.935-0.04-1.145,0.382
			l-3.043,6.084c-0.934-0.555-2.219-1.638-3.132-2.488c0.957-2.074,2.033-3.982,3.205-5.681c3.342-4.897,7.488-8.062,10.563-8.062
			c1.443,0,2.736,1.002,3.844,2.98c0.891,1.583,1.662,3.781,2.29,6.532c0.878,3.82,2.161,6.328,2.885,7.531
			c-0.655,0.273-1.763,0.599-3.328,0.599c-0.472,0-0.854,0.382-0.854,0.854s0.383,0.854,0.854,0.854c3.313,0,5.001-1.26,5.071-1.314
			C50.352,39.944,50.423,39.408,50.137,39.034z"/>
		<path fill="#344463" d="M51.45,56.625c0-0.471-0.382-0.854-0.854-0.854c-0.471,0-0.854,0.383-0.854,0.854
			c0,1.664,1.097,12.164,1.143,12.609C50.932,69.674,51.303,70,51.734,70c0.029,0,0.059-0.002,0.089-0.005
			c0.47-0.05,0.81-0.47,0.761-0.938C52.193,65.309,51.45,57.886,51.45,56.625z"/>
		<path fill="#344463" d="M42.424,40.69c0.088-0.586,0.231-1.053,0.4-1.584c0.31-0.975,0.658-2.081,0.658-4.107
			c0-5.837-0.143-7.683-3.13-7.683c-2.521,0-4.497,5.096-4.716,5.678c-0.183,0.492-0.414,0.953-0.658,1.44
			c-0.575,1.151-1.171,2.339-1.171,3.979c0,0.886-0.011,1.566-0.033,2.135v0.005c-0.031,0.7-0.075,1.267-0.149,1.994
			c-0.021,0.074-0.062,0.2-0.117,0.374c-0.312,0.978-1.054,3.32-1.528,6.475c-0.055,0.364-0.107,0.734-0.154,1.117
			c-0.03,0.25-0.059,0.504-0.084,0.762c-0.014,0.131-0.023,0.26-0.037,0.391c-0.122,1.279-0.182,2.564-0.173,3.828
			c0.004,0.469,0.386,0.847,0.854,0.847c0.002,0,0.004,0,0.007,0c0.471-0.003,0.852-0.39,0.847-0.86
			c-0.01-1.327,0.058-2.681,0.2-4.029c0.397-3.928,1.341-6.895,1.696-8.012c0.123-0.389,0.166-0.521,0.182-0.668
			c0.084-0.793,0.129-1.395,0.164-2.148c0.023-0.598,0.035-1.3,0.035-2.209c0-1.237,0.459-2.154,0.99-3.214
			c0.253-0.508,0.516-1.032,0.73-1.609c0.789-2.112,2.322-4.567,3.116-4.567c0.886,0,0.926,0.11,1.056,0.476
			c0.305,0.848,0.367,2.812,0.367,5.5c0,1.762-0.281,2.651-0.579,3.592c-0.186,0.588-0.379,1.197-0.482,1.982
			c-0.052,0.367-0.077,0.779-0.077,1.254c0,1.455,0.278,5.203,0.571,9.17c0.279,3.762,0.567,7.65,0.567,9.042
			c0,3.339-4.179,3.699-5.977,3.699c-2.223,0-6.103-1.68-10.924-4.729c-2.567-1.622-4.479-3.053-4.497-3.066
			c-0.013-0.01-0.026-0.016-0.04-0.025c-0.013-0.008-0.023-0.019-0.036-0.025l-2.386-1.422c-0.077,0.213-0.152,0.424-0.219,0.635
			c-0.022,0.064-0.036,0.131-0.056,0.195c-0.089,0.283-0.165,0.57-0.227,0.857l1.975,1.178c0.287,0.213,2.11,1.562,4.572,3.117
			c0.036,0.023,0.074,0.046,0.109,0.068c3.592,2.264,8.502,4.925,11.728,4.925c4.812,0,7.684-2.021,7.684-5.406
			c0-1.454-0.276-5.202-0.571-9.169c-0.278-3.762-0.567-7.65-0.567-9.043c0-0.396,0.021-0.73,0.062-1.025
			C42.411,40.763,42.418,40.729,42.424,40.69z"/>
		<path fill="#344463" d="M23.596,23.752c0.008,0.146,0.017,0.295,0.028,0.452c0,0.015,0.002,0.028,0.003,0.042
			c0.034,0.431,0.078,0.83,0.13,1.207c0.2,1.424,0.536,2.48,1.026,3.198c0.166,0.243,0.433,0.373,0.706,0.373
			c0.166,0,0.333-0.048,0.48-0.148c0.096-0.065,0.173-0.148,0.233-0.239c0.182-0.28,0.191-0.654-0.009-0.948
			c-0.305-0.447-0.704-1.438-0.867-3.608c-0.076-1.081-0.056-1.925-0.056-1.934c0.007-0.245-0.093-0.48-0.272-0.647
			c-0.017-0.015-1.65-1.585-1.65-3.438c0-0.449,0.076-0.926,0.221-1.378c0.002-0.007,0.001-0.016,0.003-0.022
			c-0.109,0.359-0.441,0.605-0.816,0.605c-0.002,0-0.004,0-0.007,0c-0.064,0-0.127-0.011-0.189-0.026
			c-0.295-0.07-0.539-0.291-0.625-0.592c-0.021-0.072-0.042-0.153-0.061-0.239c-0.152,0.548-0.233,1.103-0.233,1.653
			c0,2.08,1.328,3.761,1.92,4.407C23.562,22.763,23.568,23.214,23.596,23.752z"/>
	</g>
	<g>
		<path fill="#5E6B84" d="M19.389,57.336l-1.975-1.178c-0.044,0.199-0.089,0.396-0.121,0.602c-0.482,3.135-0.056,5.499,1.171,6.484
			l0.044,0.029c0.035,0.024,0.069,0.049,0.1,0.072c0.354,0.257,0.782,0.394,1.256,0.394c1.603,0,2.661-1.823,2.672-1.843
			c0.218-0.384,0.689-0.53,1.085-0.355l0.449-1.02c-0.036-0.022-0.074-0.045-0.109-0.068C21.5,58.897,19.676,57.549,19.389,57.336z"
			/>
		<path fill="#5E6B84" d="M50.171,9.487c-0.159-0.239-0.426-0.382-0.713-0.382c-1.345,0-2.528-1.553-3.899-3.351
			C43.605,3.189,41.173,0,36.938,0c-3.541,0-5.379,1.507-6.073,2.255c-0.113-0.003-0.245-0.006-0.39-0.006
			c-1.443,0-4.129,0.227-5.914,1.744c-1.222,1.038-3.272,3.341-3.272,7.104c0,0.875,0.255,3.914,0.587,5.312
			c0.02,0.085,0.04,0.167,0.061,0.239c0.086,0.301,0.33,0.522,0.625,0.592c0.062,0.015,0.125,0.026,0.189,0.026
			c0.002,0,0.005,0,0.007,0c0.375,0,0.707-0.246,0.816-0.605c0-0.001,0-0.002,0.001-0.002c0.404-1.342,1.355-2.432,2.12-2.432
			c1.01,0,1.333,0.582,1.358,0.629c0.125,0.284,0.397,0.479,0.707,0.505c0.31,0.026,0.612-0.118,0.785-0.378
			c0.954-1.435,2.843-2.469,3.71-2.889c1.165,0.921,4.489,3.27,8.099,3.27c1.511,0,2.913-0.196,4.185-0.578
			c0.285-0.085,0.562-0.182,0.832-0.285c0.078-0.031,0.158-0.058,0.236-0.09c0.045-0.018,0.087-0.04,0.125-0.064
			c0.16-0.069,0.311-0.142,0.462-0.215c3.008-1.465,4.009-3.738,4.052-3.841C50.356,10.029,50.328,9.727,50.171,9.487z"/>
	</g>
</g>
</svg>
