<?xml version="1.0" encoding="utf-8"?>
<!-- Generator: Adobe Illustrator 15.0.0, SVG Export Plug-In . SVG Version: 6.00 Build 0)  -->
<!DOCTYPE svg PUBLIC "-//W3C//DTD SVG 1.1//EN" "http://www.w3.org/Graphics/SVG/1.1/DTD/svg11.dtd">
<svg version="1.1" id="Layer_1" xmlns="http://www.w3.org/2000/svg" xmlns:xlink="http://www.w3.org/1999/xlink" x="0px" y="0px"
	 width="70px" height="70px" viewBox="0 0 70 70" enable-background="new 0 0 70 70" xml:space="preserve">
<g>
	<path fill="#2B86C8" d="M68.852,23.368c0.631,0,1.148-0.517,1.148-1.147s-0.518-1.147-1.148-1.147s-1.146,0.516-1.146,1.147
		S68.221,23.368,68.852,23.368z"/>
	<path fill="#2B86C8" d="M66.557,16.483c0.631,0,1.148-0.517,1.148-1.147s-0.518-1.147-1.148-1.147s-1.146,0.517-1.146,1.147
		S65.926,16.483,66.557,16.483z"/>
	<path fill="#2B86C8" d="M61.967,7.303c0.631,0,1.148-0.517,1.148-1.147s-0.518-1.147-1.148-1.147S60.82,5.524,60.82,6.155
		S61.336,7.303,61.967,7.303z"/>
	<path fill="#2B86C8" d="M49.346,6.155c0.629,0,1.146-0.517,1.146-1.147S49.975,3.86,49.346,3.86c-0.633,0-1.148,0.517-1.148,1.147
		S48.713,6.155,49.346,6.155z"/>
	<path fill="#2B86C8" d="M47.051,14.188c0.629,0,1.146-0.517,1.146-1.147c0-0.631-0.518-1.147-1.146-1.147
		c-0.633,0-1.148,0.516-1.148,1.147C45.902,13.671,46.418,14.188,47.051,14.188z"/>
	<path fill="#2B86C8" d="M44.756,38.285c0,0.631,0.516,1.147,1.146,1.147s1.148-0.517,1.148-1.147s-0.518-1.147-1.148-1.147
		S44.756,37.654,44.756,38.285z"/>
	<path fill="#2B86C8" d="M41.312,11.893c0.631,0,1.148-0.517,1.148-1.147c0-0.631-0.518-1.148-1.148-1.148
		c-0.633,0-1.146,0.517-1.146,1.148C40.166,11.376,40.68,11.893,41.312,11.893z"/>
	<path fill="#2B86C8" d="M40.166,31.4c0,0.631,0.514,1.147,1.146,1.147c0.631,0,1.148-0.517,1.148-1.147
		c0-0.631-0.518-1.148-1.148-1.148C40.68,30.252,40.166,30.769,40.166,31.4z"/>
	<path fill="#2B86C8" d="M10.33,16.483c1.905,0,3.442-1.802,3.442-4.016S12.235,8.45,10.33,8.45s-3.443,1.802-3.443,4.017
		S8.424,16.483,10.33,16.483z"/>
	<path fill="#5E6B84" d="M47.051,27.958c0,2.513,1.146,3.443,2.799,3.443c0.367,0,0.855-0.211,1.398-0.556
		c0.059-0.063,0.119-0.128,0.182-0.199c0.312-0.342,0.68-0.745,1.07-1.188c0.281-0.319,0.574-0.655,0.867-1
		c1.516-1.788,3.031-3.812,2.875-4.657c-0.01-0.05-0.041-0.161-0.221-0.307c-0.078-0.065-0.18-0.135-0.336-0.212
		c-0.484-0.238-1.23-0.118-4.516,4.061c-0.047,0.06-0.109,0.097-0.166,0.141c-0.096,0.072-0.197,0.122-0.309,0.149
		c-0.25,0.061-0.52,0.024-0.736-0.146c-0.371-0.294-0.438-0.836-0.143-1.209c3.125-3.972,4.734-5.478,6.635-4.538
		c0.143,0.07,0.26,0.153,0.385,0.234c0.607,0.396,0.984,0.899,1.098,1.513c0.299,1.599-1.064,3.756-5.354,8.449l-1.09,20.98
		c-0.023,0.367,0.115,0.734,0.391,1.009c0.264,0.276,0.631,0.425,1.01,0.425c3.557-0.022,2.594-1.961,4.486-14.778
		c1.664,11.211,0.918,14.113,4.256,14.665c0.082,0.011,0.162,0.021,0.242,0.021c0.344,0,0.666-0.125,0.932-0.343
		c0.309-0.276,0.48-0.68,0.467-1.092L62.07,27.958c0,0,1.17,3.947,2.789,7.884c0.801,1.961,1.65,2.514,2.488,2.514
		c0.219,0,0.438-0.037,0.656-0.092c0.643-0.174,1.1-0.988,0.699-2.193c-1.09-3.225-3.227-12.209-3.844-13.425
		c-0.586-1.143-1.592-2.915-4.092-3.59c-0.846,0.826-1.93,1.346-3.125,1.416c-0.09,0.004-0.176,0.029-0.266,0.029
		c-1.312,0-2.498-0.564-3.408-1.461c-1.992,0.587-3.107,2.119-4.27,3.399C49.012,23.195,47.051,25.445,47.051,27.958z"/>
	<path fill="#2B86C8" d="M0.852,38.264c1.056,0.286,2.134,0.055,3.145-2.422c1.616-3.937,2.788-7.884,2.788-7.884L5.578,52.823
		c-0.011,0.412,0.161,0.815,0.471,1.092c0.32,0.273,0.746,0.389,1.169,0.321c3.339-0.552,2.593-3.454,4.258-14.665
		c1.894,12.817,0.928,14.756,4.487,14.778c0.378,0,0.744-0.148,1.009-0.425c0.275-0.274,0.414-0.642,0.39-1.009L16.17,27.958
		c0,0,1.17,3.947,2.788,7.884c1.011,2.477,2.089,2.708,3.145,2.422c0.643-0.174,1.1-0.988,0.699-2.193
		c-1.089-3.225-4.395-12.209-5.014-13.425c-0.735-1.434-3.122-2.72-6.311-2.72h-1.17c-3.203,0-5.578,1.286-6.311,2.72
		C3.375,23.861,1.242,32.846,0.15,36.07C-0.251,37.275,0.208,38.09,0.852,38.264z"/>
	<path fill="#344463" d="M44.146,66.434c0.168,0.168,0.387,0.252,0.609,0.252c0.219,0,0.439-0.084,0.605-0.252l4.592-4.59
		c0.082-0.082,0.143-0.178,0.186-0.279c0.043-0.103,0.066-0.213,0.066-0.329c0-0.117-0.023-0.229-0.066-0.33
		c-0.043-0.101-0.104-0.197-0.186-0.279l-4.592-4.59c-0.336-0.336-0.879-0.336-1.215,0c-0.338,0.336-0.338,0.882,0,1.218l3.121,3.12
		H19.292l3.12-3.12c0.336-0.336,0.336-0.882,0-1.218c-0.336-0.336-0.881-0.336-1.217,0l-4.59,4.59
		c-0.083,0.082-0.144,0.179-0.186,0.279c-0.041,0.102-0.065,0.213-0.065,0.33c0,0.116,0.024,0.227,0.065,0.329
		c0.042,0.102,0.103,0.197,0.186,0.279l4.59,4.59c0.168,0.168,0.388,0.252,0.609,0.252c0.22,0,0.439-0.084,0.607-0.252
		c0.336-0.336,0.336-0.881,0-1.218l-3.12-3.12h27.976l-3.121,3.12C43.809,65.553,43.809,66.098,44.146,66.434z"/>
	<path fill="#344463" d="M32.132,7.016c0.475,0,0.862-0.385,0.862-0.861V3.86c0-0.475-0.387-0.86-0.862-0.86
		s-0.861,0.386-0.861,0.86v2.295C31.271,6.631,31.657,7.016,32.132,7.016z"/>
	<path fill="#344463" d="M32.132,13.901c0.475,0,0.862-0.385,0.862-0.86v-2.295c0-0.475-0.387-0.86-0.862-0.86
		s-0.861,0.385-0.861,0.86v2.295C31.271,13.516,31.657,13.901,32.132,13.901z"/>
	<path fill="#344463" d="M32.132,20.786c0.475,0,0.862-0.385,0.862-0.86V17.63c0-0.475-0.387-0.861-0.862-0.861
		s-0.861,0.386-0.861,0.861v2.295C31.271,20.401,31.657,20.786,32.132,20.786z"/>
	<path fill="#344463" d="M32.132,27.671c0.475,0,0.862-0.385,0.862-0.861v-2.295c0-0.475-0.387-0.86-0.862-0.86
		s-0.861,0.386-0.861,0.86v2.295C31.271,27.286,31.657,27.671,32.132,27.671z"/>
	<path fill="#344463" d="M32.132,34.556c0.475,0,0.862-0.385,0.862-0.86V31.4c0-0.476-0.387-0.86-0.862-0.86
		s-0.861,0.385-0.861,0.86v2.295C31.271,34.17,31.657,34.556,32.132,34.556z"/>
	<path fill="#344463" d="M32.132,41.44c0.475,0,0.862-0.386,0.862-0.86v-2.295c0-0.475-0.387-0.86-0.862-0.86
		s-0.861,0.386-0.861,0.86v2.295C31.271,41.055,31.657,41.44,32.132,41.44z"/>
	<path fill="#344463" d="M32.132,48.326c0.475,0,0.862-0.386,0.862-0.861V45.17c0-0.475-0.387-0.86-0.862-0.86
		s-0.861,0.386-0.861,0.86v2.295C31.271,47.94,31.657,48.326,32.132,48.326z"/>
	<path fill="#344463" d="M32.132,55.21c0.475,0,0.862-0.385,0.862-0.86v-2.295c0-0.475-0.387-0.86-0.862-0.86
		s-0.861,0.386-0.861,0.86v2.295C31.271,54.825,31.657,55.21,32.132,55.21z"/>
	<path fill="#344463" d="M37.867,20.786c0.057,0,0.115-0.004,0.172-0.016l3.795-0.758c0.467-0.093,0.77-0.546,0.678-1.012
		c-0.094-0.467-0.559-0.773-1.014-0.676l-3.797,0.757c-0.465,0.093-0.768,0.546-0.676,1.012
		C37.108,20.503,37.467,20.786,37.867,20.786z"/>
	<path fill="#344463" d="M46.143,19.134c0.057,0,0.111-0.007,0.17-0.018l3.201-0.642c0.467-0.093,0.77-0.548,0.674-1.014
		c-0.092-0.467-0.549-0.765-1.012-0.674l-3.201,0.642c-0.467,0.094-0.77,0.548-0.674,1.013
		C45.381,18.852,45.742,19.134,46.143,19.134z"/>
	<path fill="#344463" d="M45.518,21.45l-6.885,3.442c-0.426,0.213-0.6,0.729-0.387,1.156c0.152,0.301,0.455,0.475,0.771,0.475
		c0.131,0,0.26-0.029,0.383-0.09l6.885-3.443c0.426-0.213,0.6-0.729,0.387-1.155C46.459,21.411,45.943,21.239,45.518,21.45z"/>
	<path fill="#5E6B84" d="M57.377,18.778c1.906,0,3.443-1.802,3.443-4.016s-1.537-4.016-3.443-4.016
		c-1.904,0-3.441,1.802-3.441,4.016S55.473,18.778,57.377,18.778z"/>
</g>
</svg>
