<?xml version="1.0" encoding="utf-8"?>
<!-- Generator: Adobe Illustrator 15.0.0, SVG Export Plug-In . SVG Version: 6.00 Build 0)  -->
<!DOCTYPE svg PUBLIC "-//W3C//DTD SVG 1.1//EN" "http://www.w3.org/Graphics/SVG/1.1/DTD/svg11.dtd">
<svg version="1.1" id="Layer_1" xmlns="http://www.w3.org/2000/svg" xmlns:xlink="http://www.w3.org/1999/xlink" x="0px" y="0px"
	 width="70px" height="70px" viewBox="0 0 70 70" enable-background="new 0 0 70 70" xml:space="preserve">
<g>
	<path fill="#344463" d="M69.593,63.775l-6.695-7.9c-0.123-0.421-0.237-1.73-0.295-2.389l-0.011-0.251
		c-0.022-0.255-0.045-0.523-0.069-0.796c0.727-0.561,1.434-1.137,2.106-1.742c1.64-1.354,2.902-2.709,3.665-4.029
		c-4.451-6.055-6.453-7.206-9.105-15.936C56.844,23.015,54.259,4.837,50.082,0c-8.343,6.26-18.917,4.758-27.409,8.913
		C17.609,11.394,7.559,21.183,0,23.903c0.592,8.776,11.155,16.322,16.471,30.744c0,0,1.923,6.465,2.174,7.956
		c0.329,1.798,0.569,3.699,0.705,5.691c2.869,0,8.537-1.265,15.059-3.313c0,0,1.305-0.295,3.416-0.9
		c0.644,0.279,1.316,0.551,2.06,0.811c1.114,0.398,2.151,0.694,3.062,0.968c0.854,0.25,1.912,0.558,2.299,0.763
		c0.547,1.001,0.934,2.186,0.934,2.195l0.139,0.43c0.146,0.451,0.564,0.755,1.037,0.754c0.021,0,0.047,0,0.068,0
		c0.237-0.001,0.459-0.118,0.592-0.312c0.133-0.195,0.162-0.442,0.079-0.662c-0.089-0.233-0.185-0.48-0.282-0.731
		c-0.013-0.035-0.025-0.07-0.04-0.105c-0.393-1-0.832-2.053-1.149-2.594c-0.466-0.818-3.074-1.218-6.168-2.31
		c-1.48-0.524-3.086-1.196-4.622-2.151c-4.735-2.948-7.729-6.067-9.675-7.889c-2.414-2.254-7.603-6.227-7.603-6.227
		s-1.31-1.889,1.183-3.324c0.125-0.07,0.261-0.119,0.402-0.156c0.045-0.014,0.09-0.023,0.136-0.031
		c0.096-0.019,0.196-0.031,0.298-0.036c0.058-0.003,0.115-0.009,0.175-0.008c0.167,0.003,0.342,0.025,0.522,0.06
		c0.073,0.014,0.148,0.028,0.222,0.047c0.176,0.043,0.356,0.095,0.542,0.159c0.091,0.033,0.186,0.071,0.279,0.108
		c0.124,0.051,0.252,0.105,0.381,0.164c0.17,0.076,0.343,0.161,0.518,0.252c0.103,0.053,0.205,0.105,0.308,0.162
		c2.882,1.578,6.355,4.656,8.558,5.627c0.006,0.002,0.011,0.005,0.017,0.007c0.209,0.091,0.407,0.165,0.59,0.214
		c0.006,0.002,0.013,0.003,0.02,0.004c0.184,0.049,0.354,0.076,0.51,0.076c0.01,0,0.018-0.003,0.025-0.003
		c0.023,0,0.043-0.004,0.064-0.007c0.154-0.008,0.296-0.037,0.412-0.104c2.196-1.275-11.554-17.643-13.09-20.295
		c-1.127-1.946-0.98-3.415,0.272-4.131c0.081-0.048,0.167-0.079,0.258-0.099c0.034-0.008,0.07-0.008,0.105-0.012
		c0.053-0.005,0.107-0.012,0.162-0.01c0.052,0.002,0.107,0.01,0.162,0.019c0.047,0.008,0.092,0.015,0.14,0.027
		c0.058,0.015,0.117,0.033,0.177,0.054C21.951,25.8,22,25.818,22.048,25.84c0.062,0.026,0.126,0.057,0.191,0.09
		c0.047,0.026,0.097,0.054,0.146,0.082c0.069,0.04,0.139,0.082,0.21,0.128c0.044,0.03,0.092,0.063,0.138,0.095
		c0.077,0.054,0.153,0.109,0.232,0.169c0.037,0.028,0.072,0.059,0.109,0.089c2.764,2.213,6.697,8.302,9.227,10.004
		c0.024,0.016,0.047,0.028,0.071,0.045c0.092,0.059,0.183,0.112,0.269,0.16c0.033,0.018,0.064,0.031,0.096,0.047
		c0.078,0.037,0.154,0.071,0.229,0.098c0.033,0.012,0.066,0.023,0.101,0.032c0.069,0.021,0.138,0.036,0.204,0.047
		c0.033,0.005,0.064,0.009,0.095,0.011c0.026,0.003,0.052,0.01,0.077,0.01c0.049,0,0.093-0.011,0.14-0.018
		c0.014-0.002,0.028-0.002,0.044-0.006c0.086-0.018,0.17-0.046,0.248-0.09c0.479-0.273-1.741-5.385-4.12-9.505
		c-4.917-8.48-6.102-11.006-3.836-12.304c0.157-0.091,0.301-0.156,0.44-0.209c0.024-0.009,0.044-0.016,0.068-0.023
		c0.114-0.038,0.224-0.054,0.333-0.062c0.076-0.004,0.151-0.005,0.226,0.006c0.034,0.006,0.07,0.011,0.105,0.02
		c0.048,0.013,0.098,0.034,0.146,0.056c0.04,0.018,0.079,0.038,0.119,0.06c0.048,0.028,0.097,0.058,0.147,0.094
		c0.043,0.031,0.086,0.069,0.13,0.107c0.049,0.041,0.098,0.08,0.148,0.13c0.056,0.056,0.116,0.123,0.174,0.19
		c0.078,0.087,0.16,0.185,0.242,0.292c0.062,0.08,0.125,0.159,0.19,0.25c0.052,0.072,0.109,0.155,0.165,0.236
		c0.068,0.1,0.139,0.201,0.212,0.313c0.054,0.083,0.111,0.171,0.168,0.261c0.088,0.138,0.178,0.284,0.272,0.437
		c0.048,0.08,0.098,0.158,0.147,0.243c0.974,1.611,2.32,4.05,4.385,7.617c0.849,1.462,1.764,3.078,2.636,4.503
		c0.024,0.039,0.048,0.078,0.072,0.118c0.111,0.18,0.223,0.357,0.331,0.53c0.046,0.071,0.09,0.141,0.135,0.21
		c0.09,0.14,0.179,0.278,0.268,0.411c0.057,0.085,0.11,0.167,0.165,0.249c0.077,0.114,0.153,0.225,0.229,0.333
		c0.061,0.087,0.12,0.172,0.179,0.254c0.07,0.097,0.137,0.189,0.206,0.28c0.06,0.08,0.119,0.158,0.179,0.233
		c0.064,0.084,0.129,0.163,0.193,0.239c0.057,0.069,0.113,0.138,0.168,0.201c0.062,0.071,0.123,0.134,0.186,0.198
		c0.051,0.055,0.104,0.111,0.152,0.159c0.062,0.06,0.123,0.11,0.183,0.159c0.044,0.038,0.089,0.078,0.132,0.109
		c0.064,0.047,0.121,0.079,0.182,0.111c0.035,0.02,0.071,0.046,0.104,0.061c0.065,0.027,0.124,0.038,0.185,0.046
		c0.024,0.004,0.051,0.016,0.073,0.017c0,0,0.006,0.001,0.009,0.001c0.08,0,0.146-0.022,0.216-0.056
		c1.024-0.593-0.638-4.746-2.116-9.244c-2.357-7.169-3.495-10.051-1.047-11.461c0.106-0.061,0.213-0.108,0.32-0.139
		c0.146-0.042,0.293-0.043,0.439-0.025c0.053,0.007,0.104,0.011,0.158,0.025c0.051,0.015,0.102,0.041,0.153,0.062
		c0.046,0.02,0.093,0.039,0.14,0.066c0.051,0.03,0.104,0.066,0.156,0.104c0.047,0.035,0.093,0.07,0.14,0.11
		c0.051,0.044,0.103,0.093,0.153,0.145c0.049,0.05,0.098,0.104,0.148,0.161c0.049,0.057,0.099,0.114,0.147,0.179
		c0.056,0.07,0.11,0.148,0.165,0.228c0.044,0.064,0.09,0.127,0.135,0.197c0.066,0.104,0.134,0.219,0.201,0.335
		c0.035,0.061,0.07,0.116,0.105,0.18c0.211,0.384,0.428,0.828,0.652,1.336c0.025,0.058,0.051,0.12,0.075,0.178
		c0.089,0.205,0.178,0.416,0.269,0.64c0.033,0.081,0.066,0.168,0.1,0.252c0.086,0.214,0.172,0.436,0.26,0.668
		c0.037,0.094,0.072,0.192,0.107,0.289c0.089,0.238,0.178,0.482,0.27,0.736c0.036,0.104,0.074,0.21,0.111,0.318
		c0.094,0.265,0.188,0.54,0.285,0.823c0.037,0.106,0.072,0.211,0.109,0.32c0.105,0.313,0.214,0.642,0.323,0.976
		c0.03,0.089,0.058,0.175,0.089,0.267c0.141,0.432,0.284,0.879,0.432,1.346c0.279,0.894,0.613,1.895,0.969,2.889
		c0.024,0.071,0.051,0.143,0.076,0.212c0.06,0.162,0.117,0.325,0.178,0.486c0.051,0.136,0.102,0.269,0.152,0.402
		c0.035,0.093,0.069,0.187,0.105,0.28c0.07,0.179,0.14,0.354,0.209,0.529c0.018,0.042,0.035,0.086,0.052,0.13
		c0.082,0.203,0.165,0.401,0.247,0.594c0.006,0.014,0.01,0.026,0.017,0.038c0.451,1.059,0.896,1.943,1.29,2.46
		c0,0.002,0.002,0.003,0.004,0.005c0.075,0.099,0.147,0.183,0.219,0.253c0.008,0.008,0.015,0.014,0.023,0.021
		c0.062,0.06,0.125,0.11,0.186,0.143c0.017,0.009,0.031,0.014,0.048,0.021c0.049,0.023,0.098,0.041,0.145,0.043
		c0.007,0,0.013,0.004,0.021,0.004c0.044,0,0.09-0.011,0.135-0.033c1.707-0.979-2.025-16.118,0.309-17.449
		c0.129-0.076,0.258-0.138,0.389-0.185c0.01-0.002,0.021-0.005,0.031-0.009c0.125-0.042,0.251-0.064,0.379-0.067
		c0.006,0,0.014,0,0.02,0c0.082,0,0.167,0.011,0.25,0.033c0.084,0.021,0.168,0.054,0.255,0.099c0.007,0.004,0.016,0.009,0.022,0.014
		c0.171,0.094,0.345,0.24,0.522,0.449c0.009,0.01,0.017,0.021,0.024,0.031c0.082,0.099,0.166,0.212,0.25,0.34
		c0.008,0.011,0.016,0.022,0.023,0.036c0.18,0.277,0.363,0.626,0.554,1.049c0.015,0.035,0.028,0.069,0.044,0.104
		c0.094,0.217,0.189,0.446,0.286,0.701c1.32,3.484,2.993,11.463,4.507,16.949c0.296,1.104,3.984,9.493,5.055,12.27
		c1.093,2.812,1.319,5.975,1.513,8.309c0.127,1.492,0.24,2.652,0.536,3.164l7.332,8.523c0.146,0.169,0.357,0.262,0.58,0.258
		c0.222-0.006,0.429-0.109,0.565-0.285c0.271-0.346,0.259-0.836-0.028-1.169L69.593,63.775z"/>
	<path fill="#2B86C8" d="M6.227,62.819l1.741,4.336l1.731-4.336c0.341-0.864,1.036-1.548,1.9-1.901l4.326-1.73l-4.326-1.73
		c-0.864-0.352-1.559-1.035-1.9-1.9l-1.731-4.336l-1.741,4.336c-0.342,0.865-1.036,1.549-1.9,1.9L0,59.188l4.326,1.73
		C5.191,61.271,5.884,61.955,6.227,62.819z"/>
	<path fill="#2B86C8" d="M63.843,3.097L62.603,0l-1.24,3.097c-0.25,0.614-0.74,1.115-1.354,1.354l-3.098,1.24l3.098,1.241
		c0.613,0.239,1.104,0.74,1.354,1.355l1.24,3.096l1.24-3.096c0.252-0.615,0.74-1.116,1.355-1.355l3.096-1.241l-3.096-1.24
		C64.583,4.211,64.095,3.71,63.843,3.097z"/>
	<path fill="#2B86C8" d="M3.71,8.309c0.751,0.308,1.344,0.888,1.641,1.639l1.478,3.71l1.492-3.71
		c0.296-0.751,0.887-1.332,1.639-1.639l2.91-1.164l0.79-0.316l-0.79-0.315L9.959,5.35C9.208,5.043,8.617,4.462,8.321,3.71L6.829,0
		L5.351,3.71C5.054,4.462,4.462,5.043,3.71,5.35L0,6.829L3.71,8.309z"/>
</g>
</svg>
