<?xml version="1.0" encoding="utf-8"?>
<!-- Generator: Adobe Illustrator 15.0.0, SVG Export Plug-In . SVG Version: 6.00 Build 0)  -->
<!DOCTYPE svg PUBLIC "-//W3C//DTD SVG 1.1//EN" "http://www.w3.org/Graphics/SVG/1.1/DTD/svg11.dtd">
<svg version="1.1" id="Layer_1" xmlns="http://www.w3.org/2000/svg" xmlns:xlink="http://www.w3.org/1999/xlink" x="0px" y="0px"
	 width="70px" height="70px" viewBox="0 0 70 70" enable-background="new 0 0 70 70" xml:space="preserve">
<g>
	<path fill="#5E6B84" d="M26.523,14.585v3.366H35.5v-4.488C35.5,6.025,29.473,0,22.036,0L8.672,0.02
		C5.594,2.4,4.006,4.554,1.84,7.854h17.952C23.504,7.854,26.523,10.873,26.523,14.585z"/>
	<circle fill="#2B86C8" cx="46.158" cy="24.122" r="2.805"/>
	<path fill="#2B86C8" d="M61.305,34.781c1.863,0,3.365-1.504,3.365-3.366s-1.502-3.366-3.365-3.366s-3.366,1.503-3.366,3.366
		S59.441,34.781,61.305,34.781z"/>
	<path fill="#2B86C8" d="M15.304,30.854c0-2.167-1.762-3.927-3.927-3.927c-2.167,0-3.927,1.761-3.927,3.927
		c0,2.166,1.759,3.927,3.927,3.927C13.542,34.781,15.304,33.021,15.304,30.854z"/>
	<path fill="#344463" d="M32.76,40.672c-1.255,0-2.59,1.081-2.59,3.085c0,1.89,2.357,3.584,4.594,4.769H21.475
		c-2.012,0-3.646,1.636-3.646,3.646c0,0.301,0.062,0.586,0.158,0.854c-1.952,0.065-3.523,1.666-3.523,3.635
		c0,1.393,1.131,2.523,2.524,2.523h1.424c-0.366,0.569-0.583,1.24-0.583,1.964c0,1.393,1.131,2.524,2.524,2.524h1.424
		c-0.366,0.568-0.583,1.239-0.583,1.963c0,1.394,1.13,2.525,2.524,2.525h22.428c1.979,0,3.91-0.396,5.74-1.18l2.67-1.144
		c1.617-0.691,3.325-1.043,5.076-1.043h9.525c0.465,0,0.842-0.377,0.842-0.841c0-0.465-0.377-0.842-0.842-0.842h-9.525
		c-1.98,0-3.91,0.396-5.739,1.179l-2.671,1.144c-1.617,0.691-3.324,1.043-5.076,1.043H23.718c-0.464,0-0.841-0.377-0.841-0.842
		c0-1.082,0.881-1.963,1.963-1.963H35.5c0.464,0,0.841-0.377,0.841-0.842s-0.377-0.842-0.841-0.842H24.84h-4.488
		c-0.464,0-0.841-0.377-0.841-0.841c0-1.083,0.881-1.964,1.963-1.964H35.5c0.464,0,0.841-0.377,0.841-0.841
		c0-0.465-0.377-0.842-0.841-0.842H21.475h-4.488c-0.465,0-0.841-0.378-0.841-0.841c0-1.083,0.881-1.964,1.963-1.964h2.244h1.683
		H35.5c0.464,0,0.841-0.377,0.841-0.842c0-0.464-0.377-0.841-0.841-0.841H22.036h-1.683c-0.464,0-0.841-0.379-0.841-0.842
		c0-1.082,0.881-1.964,1.963-1.964h19.635c0.465,0,0.842-0.376,0.842-0.841s-0.377-0.842-0.842-0.842h-2.225
		c-2.886-1.07-7.032-3.281-7.032-4.769c0-0.911,0.467-1.402,0.878-1.403c0.255,0.028,1.306,0.41,2.152,0.719
		c1.622,0.59,3.642,1.324,4.983,1.518l0.799,0.115c4.576,0.654,7.338,1.052,13.412,4.612c0.345,0.204,0.748,0.528,1.175,0.872
		c1.254,1.008,2.813,2.263,4.93,2.263h8.976c0.465,0,0.842-0.377,0.842-0.841c0-0.465-0.377-0.842-0.842-0.842h-8.976
		c-1.522,0-2.772-1.005-3.876-1.893c-0.475-0.381-0.924-0.742-1.375-1.01c-6.363-3.73-9.247-4.145-14.026-4.828l-0.8-0.115
		c-1.168-0.168-3.096-0.871-4.646-1.434C33.793,40.883,33.172,40.672,32.76,40.672z"/>
	<path fill="#2B86C8" d="M36.086,36.762l0.27,2.67c0.043,0.435,0.408,0.757,0.836,0.757c0.028,0,0.057,0,0.085-0.005
		c0.462-0.046,0.8-0.457,0.754-0.92l-0.27-2.672c-0.046-0.462-0.46-0.806-0.923-0.751C36.376,35.887,36.041,36.299,36.086,36.762z"
		/>
	<path fill="#2B86C8" d="M23.388,43.434l-0.292,2.469c-0.055,0.461,0.274,0.88,0.736,0.935c0.033,0.005,0.066,0.005,0.099,0.005
		c0.421,0,0.785-0.314,0.835-0.742l0.292-2.469c0.055-0.461-0.274-0.88-0.736-0.934C23.863,42.639,23.442,42.971,23.388,43.434z"/>
	<path fill="#2B86C8" d="M24.159,36.592l-0.27,2.672c-0.046,0.463,0.292,0.874,0.754,0.92c0.028,0.005,0.057,0.005,0.085,0.005
		c0.427,0,0.791-0.322,0.834-0.757l0.27-2.67c0.048-0.463-0.29-0.875-0.752-0.921C24.63,35.785,24.208,36.13,24.159,36.592z"/>
	<path fill="#2B86C8" d="M35.367,29.591l0.281,2.794c0.044,0.434,0.41,0.758,0.837,0.758c0.026,0,0.055,0,0.083-0.004
		c0.463-0.046,0.801-0.458,0.754-0.92l-0.28-2.794c-0.046-0.462-0.456-0.813-0.921-0.754C35.659,28.717,35.322,29.128,35.367,29.591
		z"/>
	<path fill="#2B86C8" d="M24.878,29.424l-0.281,2.794c-0.046,0.462,0.292,0.874,0.754,0.92c0.028,0.004,0.055,0.004,0.083,0.004
		c0.428,0,0.794-0.324,0.837-0.758l0.281-2.794c0.046-0.462-0.292-0.874-0.754-0.92C25.349,28.624,24.924,28.962,24.878,29.424z"/>
	<path fill="#2B86C8" d="M34.66,22.521l0.27,2.728c0.044,0.435,0.41,0.759,0.837,0.759c0.028,0,0.058-0.002,0.083-0.004
		c0.463-0.046,0.803-0.458,0.756-0.92l-0.27-2.726c-0.045-0.462-0.459-0.799-0.92-0.756C34.953,21.647,34.616,22.059,34.66,22.521z"
		/>
	<path fill="#2B86C8" d="M26.153,26.008c0.427,0,0.793-0.324,0.837-0.759l0.27-2.728c0.046-0.462-0.293-0.874-0.756-0.92
		c-0.45-0.044-0.872,0.293-0.92,0.756l-0.27,2.726c-0.044,0.462,0.293,0.874,0.756,0.92C26.099,26.006,26.125,26.008,26.153,26.008z
		"/>
	<path fill="#2B86C8" d="M30.17,38.146c0,0.465,0.377,0.842,0.842,0.842c0.464,0,0.841-0.377,0.841-0.842v-2.243
		c0-0.465-0.377-0.842-0.841-0.842c-0.465,0-0.842,0.377-0.842,0.842V38.146z"/>
	<path fill="#2B86C8" d="M30.17,31.415c0,0.465,0.377,0.842,0.842,0.842c0.464,0,0.841-0.377,0.841-0.842v-2.244
		c0-0.465-0.377-0.841-0.841-0.841c-0.465,0-0.842,0.376-0.842,0.841V31.415z"/>
	<path fill="#2B86C8" d="M31.012,25.525c0.464,0,0.841-0.377,0.841-0.842v-2.244c0-0.464-0.377-0.841-0.841-0.841
		c-0.465,0-0.842,0.377-0.842,0.841v2.244C30.17,25.148,30.547,25.525,31.012,25.525z"/>
	<path fill="#2B86C8" d="M9.199,61.428c0.465,0,0.841-0.377,0.841-0.842c0-0.464-0.376-0.841-0.841-0.841
		c-2.52,0-4.843-1.468-5.915-3.735c-1.304-2.776-0.434-6.105,2.069-7.915c2.146-1.558,5.097-1.657,7.35-0.247
		c0.393,0.244,0.912,0.127,1.159-0.268c0.248-0.393,0.127-0.912-0.267-1.16c-2.827-1.77-6.539-1.645-9.23,0.312
		c-3.156,2.283-4.251,6.486-2.601,9.995C3.111,59.583,6.03,61.428,9.199,61.428z"/>
	<path fill="#2B86C8" d="M14.607,64.6c-0.888,1.305-1.514,1.877-3.791,1.877c-0.723,0-1.473-0.189-2.058-0.52
		c-0.907-0.51-1.608-1.326-1.981-2.304c-0.165-0.435-0.653-0.651-1.085-0.487c-0.434,0.165-0.653,0.65-0.489,1.086
		c0.513,1.346,1.481,2.472,2.729,3.17c0.839,0.477,1.862,0.738,2.884,0.738c2.877,0,4.003-0.881,5.183-2.611
		c0.261-0.385,0.162-0.908-0.221-1.17C15.394,64.117,14.87,64.217,14.607,64.6z"/>
	<path fill="#2B86C8" d="M11.535,43.767c0.127,0.07,0.265,0.103,0.401,0.103c0.298,0,0.587-0.158,0.74-0.438
		c0.456-0.835,1.192-1.496,2.071-1.858c1.836-0.755,3.914-0.147,5.049,1.478c0.268,0.381,0.793,0.473,1.173,0.207
		c0.381-0.267,0.473-0.791,0.208-1.172c-1.591-2.274-4.499-3.127-7.069-2.068c-1.236,0.508-2.27,1.436-2.908,2.607
		C10.976,43.033,11.127,43.543,11.535,43.767z"/>
	<path fill="#2B86C8" d="M43.973,38.716c1.967-2.146,5.113-2.676,7.667-1.286c2.067,1.113,3.333,3.266,3.304,5.621
		c-0.006,0.464,0.365,0.846,0.83,0.852c0.004,0,0.008,0,0.012,0c0.459,0,0.836-0.37,0.841-0.83c0.038-2.984-1.567-5.715-4.187-7.122
		c-3.225-1.757-7.219-1.087-9.707,1.628c-0.314,0.342-0.291,0.875,0.051,1.189S43.658,39.058,43.973,38.716z"/>
	<path fill="#2B86C8" d="M63.455,46.837c0.032,0.005,0.064,0.005,0.095,0.005c0.423,0,0.786-0.318,0.835-0.748
		c0.261-2.336-0.853-4.65-2.827-5.895c-0.719-0.463-1.545-0.77-2.391-0.889c-0.456-0.061-0.886,0.256-0.951,0.716
		c-0.064,0.46,0.257,0.886,0.717,0.95c0.606,0.086,1.198,0.308,1.722,0.643c1.439,0.907,2.246,2.59,2.059,4.289
		C62.661,46.37,62.993,46.787,63.455,46.837z"/>
</g>
</svg>
